<svg xmlns="http://www.w3.org/2000/svg" width="90.111" height="108.736" viewBox="0 0 90.111 108.736"><defs><style>.a{fill:#d4f9f5;}.b{fill:#333;}.c{fill:#00baa4;}.d{fill:#120d0c;}.e{fill:#75e7d9;}.f{fill:#008f7e;}.g{fill:#fff;}</style></defs><g transform="translate(-31.966)"><g transform="translate(87.229)"><g transform="translate(0 8.261)"><g transform="translate(0 0.641)"><path class="a" d="M204.762,38.719l-2.342-1.295c.11-.195,2.732-4.79,9.961-5.245,3.54-.223,5.269-2.423,7.461-5.212a24.6,24.6,0,0,1,4.831-5.038l1.575,2.168a22.431,22.431,0,0,0-4.3,4.526c-2.289,2.915-4.66,5.931-9.4,6.231C206.767,35.212,204.782,38.683,204.762,38.719Z" transform="translate(-202.42 -21.93)"/></g><g transform="translate(2.63)"><path class="b" d="M209.29,35.694l-.39-.215c.1-.175,2.427-4.254,9.056-4.672,4.039-.256,6.093-2.87,8.269-5.634a23.643,23.643,0,0,1,4.607-4.822l.264.361a23.459,23.459,0,0,0-4.522,4.737c-2.237,2.85-4.352,5.537-8.589,5.8C211.612,31.651,209.31,35.653,209.29,35.694Z" transform="translate(-208.9 -20.35)"/></g></g><g transform="translate(15.153)"><path class="b" d="M240.132,13.96l-.382-.227c.037-.065,3.9-6.418,10.672-7.985,6.56-1.522,8.6-5.707,8.622-5.748l.4.191c-.085.179-2.139,4.421-8.926,5.991C243.931,7.709,240.168,13.9,240.132,13.96Z" transform="translate(-239.75)"/></g><g transform="translate(6.215 15.746)"><g transform="translate(0 3.519)"><g transform="translate(0 0.536)"><path class="a" d="M219.536,58l-1.806-1.977c.134-.122,3.4-3.077,12.239-7.242l1.141,2.423C222.711,55.161,219.569,57.97,219.536,58Z" transform="translate(-217.73 -48.78)"/></g><g transform="translate(2.399)"><path class="b" d="M223.94,54.844l-.3-.329c.032-.028,3.276-2.963,11.963-7.055l.191.4C227.167,51.929,223.973,54.815,223.94,54.844Z" transform="translate(-223.64 -47.46)"/></g></g><g transform="translate(9.86)"><path class="b" d="M242.288,48.1l-.268-.357a38.7,38.7,0,0,1,8.269-4.128,12.789,12.789,0,0,0,6.162-4.826l.39.219a12.945,12.945,0,0,1-6.385,5.025A39.188,39.188,0,0,0,242.288,48.1Z" transform="translate(-242.02 -38.79)"/></g></g></g><g transform="translate(63.279 19.148)"><g transform="translate(20.848 12.036)"><path class="c" d="M194.78,88.62v3.568l20.442-11.8V76.82Z" transform="translate(-194.78 -76.82)"/></g><g transform="translate(0.41 12.036)"><path class="c" d="M144.43,76.82v3.568l20.438,11.8V88.62Z" transform="translate(-144.43 -76.82)"/></g><path class="a" d="M185.311,59.544l-20.442,11.8-20.438-11.8,20.438-11.8Z" transform="translate(-144.02 -47.509)"/><path class="b" d="M164.268,71.241l-.1-.057L143.42,59.206,164.268,47.17l.1.057,20.747,11.979ZM144.232,59.206l20.036,11.569L184.3,59.206,164.268,47.637Z" transform="translate(-143.42 -47.17)"/><g transform="translate(0.296 15.36)"><g transform="translate(0.114 0.195)"><g transform="translate(20.438)"><path class="b" d="M194.78,97.29v3.572l20.442-11.8V85.49Z" transform="translate(-194.78 -85.49)"/></g><path class="c" d="M144.43,85.49v3.568l20.438,11.8V97.29Z" transform="translate(-144.43 -85.49)"/></g><path class="b" d="M164.7,97.265,144.15,85.4l.223-.39L164.7,96.749,185.031,85.01l.223.39Z" transform="translate(-144.15 -85.01)"/></g><g transform="translate(0.296 18.936)"><g transform="translate(0.114 0.191)"><g transform="translate(20.438)"><path class="c" d="M194.78,106.094v3.568l20.442-11.8V94.29Z" transform="translate(-194.78 -94.29)"/></g><path class="c" d="M144.43,94.29v3.572l20.438,11.8v-3.568Z" transform="translate(-144.43 -94.29)"/></g><path class="b" d="M164.7,106.071,144.15,94.206l.223-.386L164.7,105.555,185.031,93.82l.223.386Z" transform="translate(-144.15 -93.82)"/></g><g transform="translate(0.296 22.525)"><g transform="translate(0.11 0.195)"><g transform="translate(20.442)"><path class="b" d="M194.78,114.94v3.572l20.442-11.8V103.14Z" transform="translate(-194.78 -103.14)"/></g><path class="c" d="M144.42,103.14v3.568l20.442,11.8V114.94Z" transform="translate(-144.42 -103.14)"/></g><path class="b" d="M164.7,114.915,144.15,103.05l.223-.39L164.7,114.4l20.329-11.739.223.39Z" transform="translate(-144.15 -102.66)"/></g><g transform="translate(0.296 26.101)"><g transform="translate(0.11 0.195)"><g transform="translate(20.442)"><path class="c" d="M194.78,123.75v3.568l20.442-11.8V111.95Z" transform="translate(-194.78 -111.95)"/></g><path class="c" d="M144.42,111.95v3.568l20.442,11.8V123.75Z" transform="translate(-144.42 -111.95)"/></g><path class="b" d="M164.7,123.721,144.15,111.856l.223-.386L164.7,123.209l20.329-11.739.223.386Z" transform="translate(-144.15 -111.47)"/></g><g transform="translate(0.296 29.754)"><g transform="translate(0.114 0.191)"><g transform="translate(20.438)"><path class="b" d="M194.78,132.744v3.568l20.442-11.8V120.94Z" transform="translate(-194.78 -120.94)"/></g><path class="c" d="M144.43,120.94v3.568l20.438,11.8v-3.568Z" transform="translate(-144.43 -120.94)"/></g><path class="b" d="M164.7,132.721,144.15,120.856l.223-.386L164.7,132.205l20.329-11.735.223.386Z" transform="translate(-144.15 -120.47)"/></g><g transform="translate(14.41 0.041)"><path class="b" d="M185.358,92.8l-6.438-3.714.223-.386,6.215,3.584,20.219-11.67V59.391L185.248,47.656l.223-.386,20.552,11.865V80.873Z" transform="translate(-178.92 -47.27)"/></g><g transform="translate(10.347 5.646)"><g transform="translate(0.365 0.248)"><g transform="translate(0 0)"><path class="c" d="M181.626,61.69c-5.253.958-9.722,3.239-11.816,6.446l17.97,3.913Z" transform="translate(-169.81 -61.69)"/></g><path class="b" d="M182.593,63.318l-.966-1.628c-5.253.958-9.722,3.239-11.816,6.446l2.854.621C174.714,66.2,178.33,64.312,182.593,63.318Z" transform="translate(-169.81 -61.69)"/><g transform="translate(12.231 4.364)"><path class="d" d="M200.878,72.878c-1.25.723-1.25,1.892,0,2.61a5.012,5.012,0,0,0,3.308.434L202.12,72.44A4.094,4.094,0,0,0,200.878,72.878Z" transform="translate(-199.94 -72.44)"/></g><g transform="translate(4.611 5.835)"><path class="b" d="M186.979,78.945c.84-.718.714-1.7-.39-2.338a4.988,4.988,0,0,0-4.522,0,1.722,1.722,0,0,0-.9,1.072Z" transform="translate(-181.17 -76.065)"/></g></g><path class="b" d="M187.7,72.016l-18.79-4.092.179-.272c2.054-3.146,6.418-5.529,11.963-6.544l.154-.028Zm-18.056-4.392,17.146,3.735-5.813-9.783C175.786,62.549,171.682,64.741,169.645,67.624Z" transform="translate(-168.91 -61.08)"/></g></g><g transform="translate(98.7 49.856)"><g transform="translate(0)"><g transform="translate(0 3.398)"><g transform="translate(0 0.54)"><path class="a" d="M231.808,144.438l-1.124-2.427.56,1.214-.564-1.214a36.393,36.393,0,0,0,6.852-4.6,40.6,40.6,0,0,1,7.1-4.891l1.181,2.4a39.2,39.2,0,0,0-6.58,4.554A38.13,38.13,0,0,1,231.808,144.438Z" transform="translate(-230.68 -132.52)"/></g><g transform="translate(2.196)"><path class="b" d="M236.277,141.095l-.187-.406a37.406,37.406,0,0,0,7.092-4.749,40.138,40.138,0,0,1,6.884-4.749l.2.4a39.738,39.738,0,0,0-6.8,4.7A38.224,38.224,0,0,1,236.277,141.095Z" transform="translate(-236.09 -131.19)"/></g></g><g transform="translate(7.976)"><path class="b" d="M250.6,129.055l-.272-.353c.061-.049,6.125-4.713,11.577-5.882l.093.434C256.65,124.4,250.663,129.006,250.6,129.055Z" transform="translate(-250.33 -122.82)"/></g></g></g><g transform="translate(31.966 30.616)"><g transform="translate(37.016 39.639)"><g transform="translate(0 0)"><ellipse class="b" cx="7.867" cy="4.542" rx="7.867" ry="4.542" transform="matrix(0.5, -0.866, 0.866, 0.5, 0, 13.625)"/><g transform="translate(2.087 1.674)"><path class="b" d="M165.91,192.016a3.075,3.075,0,0,1-1.559-.4,4.118,4.118,0,0,1-1.741-3.8,12.557,12.557,0,0,1,5.675-9.827,3.608,3.608,0,0,1,5.9,3.406,12.557,12.557,0,0,1-5.675,9.827A5.274,5.274,0,0,1,165.91,192.016Zm4.964-14.37a4.857,4.857,0,0,0-2.371.731,12.069,12.069,0,0,0-5.452,9.442,3.174,3.174,0,0,0,5.228,3.02,12.075,12.075,0,0,0,5.452-9.442,3.71,3.71,0,0,0-1.518-3.41A2.651,2.651,0,0,0,170.875,177.646Z" transform="translate(-162.61 -177.199)"/></g><g transform="translate(4.218 4.367)"><path class="c" d="M175.167,186.441a8.077,8.077,0,0,1-3.653,6.328c-2.017,1.165-3.653.219-3.653-2.111a8.077,8.077,0,0,1,3.653-6.328C173.531,183.165,175.167,184.111,175.167,186.441Z" transform="translate(-167.86 -183.831)"/></g></g></g><g transform="translate(17.56 43.396)"><path class="a" d="M117.955,182.33l-4.636,2.841L109.54,197.7l4.278,4.851.361.28,17.909-10.242s1.672-3.978.6-6.8S117.955,182.33,117.955,182.33Z" transform="translate(-109.54 -182.33)"/></g><g transform="translate(6.231 48.158)"><path class="b" d="M95.407,206.3a3.675,3.675,0,0,1-.272-1.133c0-.041,0-.081-.008-.122a23.139,23.139,0,0,1,.824-7.493l-7.794-3.191L81.63,196.5a11.938,11.938,0,0,1,.5,5.3l7.42,5.577-3.219.52s7.25,5.813,12.1,4.132a7.425,7.425,0,0,0,1.258-.6l13.7-7.911a7.639,7.639,0,0,0,3.515-9c-.053-.154-.11-.3-.17-.463l-1.851,1.258a3.117,3.117,0,0,1,.179.4,4.25,4.25,0,0,1-1.908,5.159l-12.5,7.173a3.707,3.707,0,0,1-3.426.142A7.129,7.129,0,0,1,95.407,206.3Z" transform="translate(-81.63 -194.06)"/></g><g transform="translate(9.941 26.317)"><g transform="translate(0.227 0.227)"><path class="b" d="M91.833,140.938l-.041.024a.925.925,0,0,0,.008,1.607l3.292,1.843a.927.927,0,0,0,.913,0h0a.926.926,0,0,0,0-1.6l-3.251-1.863A.9.9,0,0,0,91.833,140.938Z" transform="translate(-91.329 -140.814)"/></g><path class="b" d="M95.211,144.418a1.143,1.143,0,0,1-.56-.146l-3.292-1.843a1.149,1.149,0,0,1-.016-2l.041-.024a1.152,1.152,0,0,1,1.145,0l3.251,1.863a1.148,1.148,0,0,1,0,1.989A1.106,1.106,0,0,1,95.211,144.418Zm-3.6-3.617-.041.024a.7.7,0,0,0,0,1.222l3.292,1.843a.705.705,0,0,0,.694,0,.7.7,0,0,0,0-1.218l-3.251-1.863a.683.683,0,0,0-.7,0Z" transform="translate(-90.77 -140.255)"/></g><g transform="translate(47.464 33.502)"><g transform="translate(0.224 0.223)"><path class="e" d="M184.165,160.207l4.181,2.61a.866.866,0,0,0,1.157-.219h0a.869.869,0,0,0-.223-1.246l-4.177-2.708a.868.868,0,0,0-1.34.69l0,.093A.878.878,0,0,0,184.165,160.207Z" transform="translate(-183.758 -158.503)"/></g><path class="b" d="M188.478,162.844a1.1,1.1,0,0,1-.576-.162l-4.181-2.61a1.094,1.094,0,0,1-.511-.974l0-.093a1.1,1.1,0,0,1,1.689-.873l4.177,2.708a1.092,1.092,0,0,1,.28,1.567A1.1,1.1,0,0,1,188.478,162.844Zm-4.522-3.154,4.181,2.61a.652.652,0,0,0,.861-.162.629.629,0,0,0,.118-.5.639.639,0,0,0-.284-.426l-4.177-2.708a.652.652,0,0,0-.649-.032.641.641,0,0,0-.349.544l0,.093a.66.66,0,0,0,.3.58Z" transform="translate(-183.208 -157.954)"/></g><g transform="translate(43.925 36.654)"><path class="a" d="M175.817,173.563l4.753-2.736a1.117,1.117,0,0,0,.54-1.222c-.256-1.051-1.153-2.8-4.258-3.739C172.229,164.47,175.817,173.563,175.817,173.563Z" transform="translate(-174.49 -165.721)"/></g><g transform="translate(29.869 29.014)"><g transform="translate(0.217 0.272)"><path class="b" d="M160.447,150.964s-4.412,5.1-4.826,11.524c0,0,.524,1.737-10.595,8.123s1.287-15.356,1.287-15.356l7.668-7.684,3.377,1.607Z" transform="translate(-140.397 -147.57)"/></g><path class="b" d="M141.514,171.613a1.535,1.535,0,0,1-1.137-.422c-2.452-2.448,4.611-15.019,5.423-16.448l.037-.049,7.782-7.794,3.519,1.676,3.341,1.928-.179.2c-.045.049-4.356,5.107-4.77,11.366.057.442-.451,2.436-10.708,8.33A7.342,7.342,0,0,1,141.514,171.613Zm4.66-16.619c-2.172,3.812-7.347,14.021-5.48,15.884.576.576,1.928.28,3.905-.857,10.493-6.028,10.5-7.851,10.493-7.867l-.012-.041,0-.041c.365-5.7,3.889-10.42,4.709-11.447l-2.862-1.652-3.219-1.53Z" transform="translate(-139.863 -146.9)"/></g><g transform="translate(22.318 21.487)"><g transform="translate(0.223 0.225)"><path class="c" d="M143.856,132.339c-2.74-2.492-8.565-3.353-9.125-3.43a.053.053,0,0,0-.057.037l-1.77,6.109c0,.008-.008.02-.016.024-.337.288-7.92,6.815-8.865,9.215-.1.26-.207.593-.317.974-1.214,4.656,1.08,5.261,1.583,5.338a.056.056,0,0,1,.037.089l-3.5,4.766a.066.066,0,0,0-.012.037c.158,1.133,1.323,6.941,8.618,5.967a.063.063,0,0,0,.045-.032l3.3-8.386s0,0,0-.012c.016-.158.552-5.326,8.622-10.522C148.41,138.647,146.734,134.957,143.856,132.339Z" transform="translate(-121.81 -128.908)"/></g><path class="b" d="M128.518,161.468a6.983,6.983,0,0,1-7.246-6.268l-.012-.089.065-.11,3.353-4.563a2.331,2.331,0,0,1-1.319-.982c-.654-.99-.714-2.533-.183-4.575a10.065,10.065,0,0,1,.325-1c.946-2.4,8.22-8.691,8.89-9.267l1.754-6.06a.278.278,0,0,1,.3-.2c.654.089,6.466.962,9.243,3.487h0c1.912,1.737,2.809,3.491,2.663,5.2-.154,1.863-1.551,3.653-4.145,5.326-7.956,5.123-8.5,10.144-8.52,10.355l-.016.069-3.3,8.386a.285.285,0,0,1-.223.175A13.029,13.029,0,0,1,128.518,161.468Zm-6.8-6.259c.191,1.258,1.413,6.584,8.261,5.719l3.256-8.269c.053-.479.808-5.565,8.719-10.66,2.472-1.591,3.8-3.268,3.942-4.985.13-1.571-.718-3.195-2.521-4.839h0c-2.529-2.3-7.753-3.191-8.857-3.353l-1.745,6.028-.065.069c-2.724,2.334-8.062,7.242-8.809,9.129-.093.239-.2.56-.309.954-.491,1.883-.447,3.341.126,4.213a1.876,1.876,0,0,0,1.275.844.277.277,0,0,1,.215.166.291.291,0,0,1-.032.276Z" transform="translate(-121.26 -128.355)"/></g><g transform="translate(19.727 22.512)"><path class="f" d="M119.591,146.439c.106-.382.215-.714.317-.974a10.81,10.81,0,0,1,1.961-2.659l.073-.921a1.542,1.542,0,0,1,1.145-1.368,19.651,19.651,0,0,0,5.809-2.622c3.621-2.395,2.509-6.633,2.509-6.633l-4.676-.382s-7.863,4.12-10.237,7.968-1.425,6.19-1.425,6.19l1.425,9.572,4.534-2.781a.046.046,0,0,0-.012-.085C120.314,151.57,118.479,150.705,119.591,146.439Z" transform="translate(-114.878 -130.88)"/></g><g transform="translate(19.499 22.284)"><path class="b" d="M115.986,154.639l-1.474-9.88c-.106-.288-.844-2.639,1.453-6.365a13.036,13.036,0,0,1,2.468-2.764l.3.333a12.551,12.551,0,0,0-2.383,2.667c-2.277,3.69-1.417,5.967-1.409,5.991l.012.049,1.376,9.235,3.929-2.407a2.379,2.379,0,0,1-1.1-.986c-.589-.995-.625-2.5-.114-4.461a10.064,10.064,0,0,1,.325-1,10.445,10.445,0,0,1,1.952-2.671l.069-.844a1.772,1.772,0,0,1,1.311-1.567,19.535,19.535,0,0,0,5.744-2.59,5.953,5.953,0,0,0,2.448-6.239l-4.449-.365a50.9,50.9,0,0,0-5.922,3.747l-.268-.357a51.94,51.94,0,0,1,6.036-3.816l.057-.028,4.9.4.041.154c.012.045,1.112,4.421-2.6,6.876a19.981,19.981,0,0,1-5.878,2.651,1.312,1.312,0,0,0-.978,1.169l-.081.995-.053.057a10.443,10.443,0,0,0-1.92,2.594c-.093.239-.2.56-.309.954-.479,1.843-.459,3.231.069,4.12a1.931,1.931,0,0,0,1.181.905.273.273,0,0,1,.2.227.287.287,0,0,1-.13.28Z" transform="translate(-114.316 -130.32)"/></g><g transform="translate(28.208 49.879)"><g transform="translate(0.226 0.268)"><path class="c" d="M138.119,202.52l-1.469,1.839a1.476,1.476,0,0,0-.134,1.64h0a1.473,1.473,0,0,0,1.283.751h.093a1.447,1.447,0,0,0,.459-.073c1.068-.353,4.916-2.184,5.9-3.832.934-1.571-.081-2.671-1.7-3.885l-.134.069A13.048,13.048,0,0,0,138.119,202.52Z" transform="translate(-136.328 -198.96)"/></g><path class="b" d="M137.56,206.581h-.093a1.7,1.7,0,0,1-1.478-.865,1.683,1.683,0,0,1,.154-1.888l1.469-1.839a13.255,13.255,0,0,1,4.36-3.556l.26-.134.11.085c1.486,1.112,2.85,2.35,1.762,4.177-1.055,1.782-5.086,3.621-6.02,3.933A1.592,1.592,0,0,1,137.56,206.581Zm.4-4.315-1.469,1.839a1.249,1.249,0,0,0,.974,2.03h.093a1.262,1.262,0,0,0,.39-.061c1.068-.353,4.835-2.151,5.776-3.734.8-1.34.045-2.31-1.538-3.511l-.012,0a12.787,12.787,0,0,0-4.214,3.434Z" transform="translate(-135.77 -198.3)"/></g><g transform="translate(30.98 42.719)"><path class="a" d="M143.16,182.544s.921,5.054.7,6.633-1,2.744.28,3.085c.7.187,3.012-1.319,3.065-2.269.106-1.948-.162-8.662-.162-8.662Z" transform="translate(-142.933 -181.058)"/><path class="b" d="M143.935,192.079a.868.868,0,0,1-.183-.02c-1.137-.3-.909-1.214-.666-2.18a10.963,10.963,0,0,0,.24-1.128c.215-1.526-.686-6.515-.694-6.568l-.032-.175,4.3-1.348.012.264c.012.276.268,6.746.162,8.683-.037.674-.917,1.384-1.295,1.656A3.912,3.912,0,0,1,143.935,192.079Zm-.877-9.795c.162.921.873,5.078.666,6.519a11.078,11.078,0,0,1-.248,1.169c-.264,1.059-.345,1.5.378,1.689a2.975,2.975,0,0,0,1.681-.735c.666-.483,1.108-1.015,1.128-1.352.093-1.7-.106-7.116-.154-8.378Z" transform="translate(-142.6 -180.66)"/></g><g transform="translate(31.142 42.69)"><path class="b" d="M144.177,192.057a.7.7,0,0,1-.191-.024l.114-.43a3.042,3.042,0,0,0,1.664-.731c.662-.479,1.1-1,1.116-1.335.093-1.685-.1-7.039-.15-8.35l-3.6,1.128-.134-.426,4.153-1.3.012.292c.012.276.268,6.746.162,8.683-.037.682-.921,1.4-1.3,1.668A3.9,3.9,0,0,1,144.177,192.057Z" transform="translate(-143 -180.59)"/></g><g transform="translate(29.4 25.787)"><path class="f" d="M151.921,139.145s.414,6.178-2.5,8.163c-1.786,1.218-3.247,2.229-4.112,2.825a1.841,1.841,0,0,0-.787,1.632l.308,4.863a1.44,1.44,0,0,1-1.023,1.465,5.645,5.645,0,0,1-2.7.211,1.436,1.436,0,0,1-1.128-1.092,49.712,49.712,0,0,1-1.271-7.42c.057-1.839,6.43-9.243,6.43-9.243l2.379-1.6Z" transform="translate(-138.707 -138.95)"/></g><g transform="translate(33.229 25.593)"><path class="b" d="M148.189,158.316l-.049-.442a6.286,6.286,0,0,0,1.2-.252,1.218,1.218,0,0,0,.865-1.238l-.308-4.863a2.079,2.079,0,0,1,.885-1.831c.865-.6,2.33-1.612,4.112-2.825,2.488-1.7,2.448-6.7,2.411-7.765l-4.132-.179-2.322,1.559-.248-.369,2.44-1.64,4.68.2.012.2c.016.256.386,6.328-2.594,8.362-1.782,1.218-3.243,2.224-4.112,2.825a1.6,1.6,0,0,0-.694,1.437l.309,4.863a1.659,1.659,0,0,1-1.177,1.693A7.31,7.31,0,0,1,148.189,158.316Z" transform="translate(-148.14 -138.47)"/></g><g transform="translate(11.829 15.128)"><path class="a" d="M106.973,113.23a30.817,30.817,0,0,0-2.009,4.575s-4.944,3.763-6.99,6.568c0,0-3.345,1.762-1.526,3.434,1.952,1.794,3.2-1.08,3.463-2.269,0,0,5.833-4.242,7.506-5.951a32.354,32.354,0,0,0,3.787-5.768Z" transform="translate(-95.709 -113.011)"/><path class="b" d="M97.381,128.261a2.028,2.028,0,0,1-1.352-.629,1.585,1.585,0,0,1-.6-1.4c.158-1.21,1.827-2.176,2.123-2.338,1.965-2.667,6.393-6.105,6.949-6.531a31.669,31.669,0,0,1,2.005-4.55l.069-.122,4.656.649-.134.256a32.048,32.048,0,0,1-3.82,5.817,93.864,93.864,0,0,1-7.469,5.927c-.179.739-.824,2.488-1.989,2.858A1.691,1.691,0,0,1,97.381,128.261Zm9.417-15.133a30.556,30.556,0,0,0-1.928,4.412l-.02.061-.053.041c-.049.037-4.944,3.779-6.949,6.523l-.028.037-.041.02c-.016.008-1.81.966-1.948,2.058a1.187,1.187,0,0,0,.467,1.047,1.419,1.419,0,0,0,1.392.471c.909-.288,1.543-1.77,1.733-2.634l.016-.077.061-.045c.057-.041,5.837-4.25,7.481-5.927a30.115,30.115,0,0,0,3.617-5.464Z" transform="translate(-95.42 -112.69)"/></g><g transform="translate(11.828 15.116)"><path class="b" d="M97.344,128.264a2.05,2.05,0,0,1-1.368-.633,1.537,1.537,0,0,1-.556-1.153,2.8,2.8,0,0,1,1.035-1.863l.3.325a2.484,2.484,0,0,0-.893,1.534,1.088,1.088,0,0,0,.414.824,1.4,1.4,0,0,0,1.376.467c.852-.272,1.518-1.693,1.717-2.618l.016-.085.069-.049c.057-.041,5.837-4.25,7.477-5.927a29.76,29.76,0,0,0,3.6-5.435l-3.917-.548.061-.442,4.546.633-.146.28a31.9,31.9,0,0,1-3.824,5.821,94.342,94.342,0,0,1-7.469,5.927c-.179.747-.828,2.492-2,2.866A1.27,1.27,0,0,1,97.344,128.264Z" transform="translate(-95.42 -112.66)"/></g><g transform="translate(22.539 10.46)"><path class="f" d="M123.788,102.213s-1.222,2.095-1.9,3.629a.929.929,0,0,0,.016.8,4.3,4.3,0,0,0,3.243,2.013.946.946,0,0,0,.9-.309,4.867,4.867,0,0,0,.792-5.472C125.156,99.518,123.788,102.213,123.788,102.213Z" transform="translate(-121.805 -101.191)"/></g><g transform="translate(24.319 10.24)"><path class="b" d="M127.931,108.578a1.383,1.383,0,0,1-.223-.02,6.794,6.794,0,0,1-1.246-.357l.162-.414a6.7,6.7,0,0,0,1.169.333.725.725,0,0,0,.686-.235,4.666,4.666,0,0,0,.759-5.224c-.507-1.023-1.039-1.563-1.534-1.563h0c-.637,0-1.108.889-1.112.9l-.4-.2c.024-.045.593-1.145,1.51-1.145h0c.682,0,1.331.613,1.928,1.81a5.1,5.1,0,0,1-.82,5.715A1.163,1.163,0,0,1,127.931,108.578Z" transform="translate(-126.19 -100.65)"/></g><g transform="translate(31.211 5.239)"><path class="e" d="M143.893,88.33l5.561,1.526a6.489,6.489,0,0,1,3.105,1.892c1.733,2.184,4.709,6.369,5.581,10.278,1.254,5.622-8.874,2.768-8.874,2.768l-2.744-12.4-3.353-1.335Z" transform="translate(-143.17 -88.33)"/></g><g transform="translate(30.939 4.967)"><path class="b" d="M153.813,105.346a21.194,21.194,0,0,1-5.005-.735l-.13-.037L145.93,92.158l-3.43-1.364.832-3.134,5.135,1.409-.118.43-4.7-1.291-.617,2.318,3.28,1.3,2.744,12.385c.889.231,6.174,1.518,7.976-.187a2.34,2.34,0,0,0,.491-2.35,25.365,25.365,0,0,0-4.149-8.338c-.191-.268-.719-.97-.974-1.315l-.085-.114.357-.268.085.114c.26.349.792,1.055.982,1.327a25.779,25.779,0,0,1,4.222,8.5,2.746,2.746,0,0,1-.621,2.772A5.205,5.205,0,0,1,153.813,105.346Z" transform="translate(-142.5 -87.66)"/></g><g transform="translate(26.664 7.495)"><g transform="translate(0.224 0.209)"><path class="c" d="M132.52,99.191a7.662,7.662,0,0,0,1.973,4.762,9.162,9.162,0,0,1,1.985,5.529s.382,1.713,4.721,4.193,7.136.191,7.6-.5c0,0,1.291-8.853-4.563-15.076s-10.375-2.7-10.375-2.7Z" transform="translate(-132.52 -94.402)"/></g><path class="c" d="M144.658,114.708a7.843,7.843,0,0,1-3.9-1.149c-4.372-2.5-4.81-4.262-4.826-4.339l0-.024v-.024a9,9,0,0,0-1.932-5.379,7.8,7.8,0,0,1-2.026-4.912l.012-.069,1.36-3.86.053-.041c.049-.037,4.749-3.576,10.676,2.72,5.857,6.231,4.632,15.173,4.619,15.263l-.037.093A5.109,5.109,0,0,1,144.658,114.708Zm-8.289-5.565c.061.187.682,1.786,4.607,4.027,4.088,2.338,6.755.313,7.274-.394.089-.731.97-9.016-4.51-14.841-5.326-5.663-9.523-3.057-10.026-2.712l-1.3,3.7a7.562,7.562,0,0,0,1.916,4.575A9.267,9.267,0,0,1,136.369,109.143Z" transform="translate(-131.969 -93.886)"/></g><g transform="translate(21.818 0.19)"><path class="f" d="M120.03,80.94a5.81,5.81,0,0,1,5.719-5.046c5.163-.179,6.746,5.622,3.889,9.9s-7.092,3.292-8.118,2.44-.739-4.343-.739-4.343Z" transform="translate(-120.03 -75.89)"/></g><g transform="translate(21.341 5.239)"><path class="a" d="M119.331,88.33a4.848,4.848,0,0,0,.215,4.538c1.007,1.51,4.851,1.616,6.775,0a2.49,2.49,0,0,0,.706-3.454.955.955,0,0,0-.986-.451,14.911,14.911,0,0,1-3.544.2A7.75,7.75,0,0,1,119.331,88.33Z" transform="translate(-118.854 -88.33)"/></g><g transform="translate(21.851 5.641)"><path class="b" d="M123.382,94.852a6.449,6.449,0,0,1-.909-.061,3.3,3.3,0,0,1-2.362-1.21l.369-.248a2.96,2.96,0,0,0,2.054,1.015,5.94,5.94,0,0,0,4.392-1.059,2.269,2.269,0,0,0,.662-3.17.74.74,0,0,0-.755-.345l-.077-.438a1.183,1.183,0,0,1,1.214.556,2.731,2.731,0,0,1-.755,3.739A6.126,6.126,0,0,1,123.382,94.852Z" transform="translate(-120.11 -89.319)"/></g><g transform="translate(30.844 8.621)"><path class="b" d="M145.149,105.94a3.432,3.432,0,0,1-2.74-2.553,6.009,6.009,0,0,1,1.709-5.793,3.54,3.54,0,0,1,3.394-.775,2.952,2.952,0,0,1,1.8,1.591l.309.617a7.28,7.28,0,0,0-1.616-1c-.418-.077-3.2.191-3.308,2.87s1.315,3.272,1.315,3.272Z" transform="translate(-142.265 -96.66)"/></g><g transform="translate(39.269 40.616)"><g transform="translate(0.223 0.227)"><path class="a" d="M163.57,178.687v.045a.868.868,0,0,0,1.315.747l3.053-1.819a.874.874,0,0,0,.426-.747h0a.869.869,0,0,0-1.311-.751L164,177.94A.854.854,0,0,0,163.57,178.687Z" transform="translate(-163.57 -176.041)"/></g><path class="b" d="M164.112,179.5a1.1,1.1,0,0,1-1.092-1.1v-.045a1.093,1.093,0,0,1,.544-.946l3.053-1.778a1.093,1.093,0,0,1,1.644.946,1.107,1.107,0,0,1-.532.942l-3.053,1.819A1.1,1.1,0,0,1,164.112,179.5Zm3.053-3.568a.622.622,0,0,0-.325.089l-3.053,1.778a.644.644,0,0,0-.321.56v.045a.649.649,0,0,0,.982.556l3.053-1.819a.653.653,0,0,0,.317-.556.635.635,0,0,0-.325-.56A.652.652,0,0,0,167.164,175.927Z" transform="translate(-163.02 -175.481)"/></g><g transform="translate(26.896 36.636)"><g transform="translate(0.227 0.227)"><path class="b" d="M133.6,166.358l-.041.024a.925.925,0,0,0,.008,1.607l3.292,1.843a.927.927,0,0,0,.913,0h0a.926.926,0,0,0,0-1.6l-3.251-1.863A.9.9,0,0,0,133.6,166.358Z" transform="translate(-133.099 -166.234)"/></g><path class="b" d="M136.981,169.838a1.143,1.143,0,0,1-.56-.146l-3.292-1.843a1.149,1.149,0,0,1-.016-2l.041-.024a1.152,1.152,0,0,1,1.145,0l3.251,1.863a1.148,1.148,0,0,1,0,1.989A1.107,1.107,0,0,1,136.981,169.838Zm-3.6-3.621-.041.024a.7.7,0,0,0,0,1.222l3.292,1.843a.705.705,0,0,0,.694,0,.7.7,0,0,0,0-1.218l-3.251-1.863a.693.693,0,0,0-.7,0Z" transform="translate(-132.54 -165.675)"/></g><g transform="translate(5.899 36.045)"><g transform="translate(0.225 0.248)"><path class="c" d="M95.27,167.509l1.084,1.323a4.752,4.752,0,0,1,.982,3.958l-1.4,6.9a3.851,3.851,0,0,1-1.851,2.574l-1.157.67a9.131,9.131,0,0,1-6.629,1h0a6.258,6.258,0,0,1-3.99-2.91l-.256-.43a4.88,4.88,0,0,1-.56-3.584h0a14.7,14.7,0,0,1,1.685-4.214l2.208-3.714a9.4,9.4,0,0,1,3.893-3.617l1.279-.637Z" transform="translate(-81.365 -164.83)"/></g><path class="b" d="M88.016,184.033a9.223,9.223,0,0,1-2.1-.24,6.514,6.514,0,0,1-4.132-3.012l-.256-.43a5.087,5.087,0,0,1-.589-3.747,14.766,14.766,0,0,1,1.713-4.278l2.208-3.714a9.607,9.607,0,0,1,3.986-3.7l1.384-.69,4.887,2.789,1.084,1.323a4.938,4.938,0,0,1,1.027,4.14l-1.4,6.9a4.079,4.079,0,0,1-1.961,2.724l-1.157.67A9.4,9.4,0,0,1,88.016,184.033Zm2.2-19.31-1.173.585a9.16,9.16,0,0,0-3.8,3.532l-2.208,3.714a14.352,14.352,0,0,0-1.66,4.149,4.639,4.639,0,0,0,.536,3.418l.256.43a6.062,6.062,0,0,0,3.848,2.8,8.926,8.926,0,0,0,6.466-.974l1.157-.67a3.636,3.636,0,0,0,1.745-2.427l1.4-6.9a4.5,4.5,0,0,0-.938-3.771l-1.059-1.291Z" transform="translate(-80.812 -164.22)"/></g><g transform="translate(12.139 42.141)"><g transform="translate(0.228 0.225)"><path class="a" d="M97.138,179.917l-.032.02a.78.78,0,0,0,.077,1.356l1.973.982a.781.781,0,0,0,.771-.045h0a.78.78,0,0,0-.069-1.352l-1.944-1A.779.779,0,0,0,97.138,179.917Z" transform="translate(-96.747 -179.792)"/></g><path class="b" d="M99.163,182.25a.963.963,0,0,1-.447-.106l-1.973-.982a1.006,1.006,0,0,1-.1-1.745l.154.166-.122-.187a1,1,0,0,1,1-.049l1.94,1a1,1,0,0,1,.548.844.985.985,0,0,1-.459.893A.97.97,0,0,1,99.163,182.25Zm-2.241-2.476-.032.02a.559.559,0,0,0,.053.97l1.973.982a.57.57,0,0,0,.552-.032.561.561,0,0,0-.049-.97l-1.94-1A.567.567,0,0,0,96.922,179.774Z" transform="translate(-96.186 -179.237)"/></g><g transform="translate(12.652 38.436)"><g transform="translate(0.227 0.28)"><path class="f" d="M105.869,183.221l1.4-6.9a4.752,4.752,0,0,0-.982-3.958l-1.084-1.323-.418-.235-.532.625L98.01,185.819a2,2,0,0,0,2.135,1.672,9.138,9.138,0,0,0,2.708-1.027l1.157-.67A3.837,3.837,0,0,0,105.869,183.221Z" transform="translate(-98.01 -170.8)"/></g><path class="b" d="M99.683,187.309a2.242,2.242,0,0,1-2.224-1.859l-.008-.065,6.3-14.508.649-.767.641.382,1.084,1.323a4.938,4.938,0,0,1,1.027,4.14l-1.4,6.9a4.086,4.086,0,0,1-1.957,2.724l-1.157.67a9.23,9.23,0,0,1-2.777,1.051C99.8,187.305,99.743,187.309,99.683,187.309Zm-1.77-1.871a1.767,1.767,0,0,0,1.892,1.425,8.891,8.891,0,0,0,2.61-1l1.157-.67a3.654,3.654,0,0,0,1.745-2.427l1.4-6.9a4.517,4.517,0,0,0-.934-3.771l-1.059-1.291-.219-.126-.39.459Z" transform="translate(-97.45 -170.11)"/></g><g transform="translate(5.894 36.447)"><g transform="translate(0.227 0.292)"><path class="f" d="M89.572,165.93l-.308.154a9.446,9.446,0,0,0-3.893,3.617l-2.208,3.714a14.52,14.52,0,0,0-1.685,4.214,4.767,4.767,0,0,0-.114,1.266c.422.268,1.019.325,1.652-.637,1.189-1.823,6.917-11.711,6.917-11.711Z" transform="translate(-81.36 -165.93)"/></g><path class="b" d="M81.568,178.857a1.249,1.249,0,0,1-.658-.2l-.1-.061,0-.118a5.089,5.089,0,0,1,.122-1.323,14.812,14.812,0,0,1,1.713-4.278l2.208-3.714a9.621,9.621,0,0,1,3.982-3.7l.5-.248.524.909-.065.11c-.057.1-5.744,9.917-6.921,11.719C82.408,178.65,81.95,178.857,81.568,178.857Zm-.317-.524c.227.118.686.223,1.242-.629,1.1-1.693,6.211-10.493,6.844-11.589l-.187-.321-.122.061a9.159,9.159,0,0,0-3.8,3.532L83.021,173.1a14.352,14.352,0,0,0-1.66,4.149A4.549,4.549,0,0,0,81.251,178.334Z" transform="translate(-80.801 -165.21)"/></g><g transform="translate(12.975 28.172)"><g transform="translate(0.227 0.231)"><path class="b" d="M98.908,146.578a2.2,2.2,0,0,0,.552,2.2,1.476,1.476,0,0,1,.345,1.165c-.089,1.169-1.445,4.343,2.05,6.361a4.97,4.97,0,0,0,5.468-.24,1.868,1.868,0,0,1,1.819-.162c1.417.645,3.925,1.6,4.891.8,1.376-1.145,2.022-2.241.962-3.077s-12.661-7.5-12.661-7.5-2.48-1.741-3.316.158C98.977,146.383,98.941,146.48,98.908,146.578Z" transform="translate(-98.805 -145.394)"/></g><path class="b" d="M104.043,156.9a5.186,5.186,0,0,1-2.63-.743c-3.077-1.778-2.553-4.457-2.273-5.9a6.124,6.124,0,0,0,.11-.674,1.255,1.255,0,0,0-.288-.995,2.414,2.414,0,0,1-.6-2.427,3.129,3.129,0,0,1,.122-.317,1.6,1.6,0,0,1,1.035-.958,3.782,3.782,0,0,1,2.614.706c.459.26,11.609,6.673,12.669,7.51a1.416,1.416,0,0,1,.613,1.108c.008.674-.5,1.433-1.571,2.318-1.007.836-3.345.041-5.127-.771a1.628,1.628,0,0,0-1.6.146A5.569,5.569,0,0,1,104.043,156.9Zm-4.035-11.622a1.4,1.4,0,0,0-.369.049,1.146,1.146,0,0,0-.747.706,2.424,2.424,0,0,0-.106.28h0a1.968,1.968,0,0,0,.5,1.977,1.678,1.678,0,0,1,.406,1.331,6.78,6.78,0,0,1-.118.727c-.276,1.425-.743,3.808,2.058,5.427a4.788,4.788,0,0,0,5.232-.231,2.087,2.087,0,0,1,2.034-.183c2.326,1.059,4.023,1.36,4.656.832.942-.783,1.417-1.445,1.409-1.969a.992.992,0,0,0-.442-.763c-1.035-.816-12.515-7.416-12.632-7.481A3.971,3.971,0,0,0,100.008,145.278Z" transform="translate(-98.244 -144.825)"/></g><g transform="translate(16.525 29.986)"><path class="f" d="M106.99,151.558s2.224-2.967,5.038-2.107a3.393,3.393,0,0,1,1.782,5.512c-1.449,1.729-4.737,2.119-4.737,2.119Z" transform="translate(-106.99 -149.294)"/></g><g transform="translate(16.273 29.908)"><path class="b" d="M108.558,157.178l-2.188-5.8.073-.1a7.236,7.236,0,0,1,1.806-1.616,4.459,4.459,0,0,1,1.327-.56l.106.434a4.175,4.175,0,0,0-1.2.5,7,7,0,0,0-1.607,1.409l1.977,5.24c.682-.11,3.231-.6,4.421-2.017a3.179,3.179,0,0,0-.118-4.254l.317-.313a3.589,3.589,0,0,1,.146,4.855c-1.49,1.778-4.745,2.18-4.883,2.2Z" transform="translate(-106.37 -149.1)"/></g><g transform="translate(15.465 30.46)"><g transform="translate(0.223 0.226)"><path class="g" d="M110.746,155.8c-.836,1.843-2.728,2.781-4.226,2.1s-2.034-2.724-1.2-4.563,2.728-2.781,4.226-2.1S111.582,153.961,110.746,155.8Z" transform="translate(-104.928 -151.017)"/></g><path class="g" d="M107.224,158.015a2.7,2.7,0,0,1-1.12-.239,2.937,2.937,0,0,1-1.6-1.993,4.5,4.5,0,0,1,2.257-4.969,2.923,2.923,0,0,1,2.553-.11c1.607.731,2.2,2.91,1.311,4.859A3.938,3.938,0,0,1,107.224,158.015Zm.962-7.108a2.748,2.748,0,0,0-1.226.3,4.052,4.052,0,0,0-2.026,4.457,2.491,2.491,0,0,0,1.352,1.7c1.384.625,3.146-.268,3.929-1.993s.3-3.641-1.088-4.27A2.333,2.333,0,0,0,108.186,150.907Z" transform="translate(-104.377 -150.461)"/></g><g transform="translate(26.124 18.249)"><path class="a" d="M143.02,121.4a65.962,65.962,0,0,1,.6,8.224,2.586,2.586,0,0,1-.771,1.758c-1.068,1.047-3.15,3.069-4.457,4.165a22.594,22.594,0,0,0-3.649,4.481s-.012,3.256-2.224,2.846-1.421-3.5,0-4.226a65.205,65.205,0,0,1,4.6-6.893,14.11,14.11,0,0,1,2.44-2.318,1.066,1.066,0,0,0,.357-1.246,15.85,15.85,0,0,1-.885-7.246Z" transform="translate(-130.938 -120.719)"/><path class="b" d="M132.59,142.779a2.093,2.093,0,0,1-.41-.041,1.75,1.75,0,0,1-1.518-1.547,3.231,3.231,0,0,1,1.4-3.032,64.432,64.432,0,0,1,4.587-6.872,14.1,14.1,0,0,1,2.476-2.35.869.869,0,0,0,.292-1.011,16.032,16.032,0,0,1-.9-7.339l.02-.207,4.356.5.02.158a65.549,65.549,0,0,1,.6,8.257,2.783,2.783,0,0,1-.832,1.9c-1.108,1.092-3.166,3.085-4.469,4.177a21.986,21.986,0,0,0-3.576,4.388,3.935,3.935,0,0,1-.99,2.651A1.646,1.646,0,0,1,132.59,142.779Zm6.316-21.944a15.494,15.494,0,0,0,.893,6.945,1.281,1.281,0,0,1-.426,1.486,13.891,13.891,0,0,0-2.4,2.281,65.1,65.1,0,0,0-4.579,6.868l-.028.053-.053.028a2.8,2.8,0,0,0-1.242,2.643,1.354,1.354,0,0,0,1.189,1.206,1.3,1.3,0,0,0,1.141-.252,3.7,3.7,0,0,0,.844-2.4v-.057l.028-.049a22.514,22.514,0,0,1,3.69-4.534c1.295-1.08,3.341-3.065,4.445-4.153a2.363,2.363,0,0,0,.71-1.62,63.522,63.522,0,0,0-.58-8.033Z" transform="translate(-130.636 -120.38)"/></g><g transform="translate(26.103 18.262)"><path class="b" d="M132.56,142.817a2.132,2.132,0,0,1-.414-.041,1.816,1.816,0,0,1-1.23-.751,2.313,2.313,0,0,1-.272-1.758l.438.085a1.891,1.891,0,0,0,.2,1.421,1.389,1.389,0,0,0,.942.564,1.3,1.3,0,0,0,1.124-.244,3.693,3.693,0,0,0,.84-2.383v-.061l.032-.053a22.571,22.571,0,0,1,3.694-4.538c1.291-1.08,3.341-3.065,4.445-4.153a2.364,2.364,0,0,0,.706-1.6,62.381,62.381,0,0,0-.58-8.013l-3.82-.438.049-.442,4.165.479.024.17a65.567,65.567,0,0,1,.6,8.261,2.8,2.8,0,0,1-.84,1.908c-1.108,1.092-3.166,3.085-4.473,4.177a21.9,21.9,0,0,0-3.568,4.38,3.951,3.951,0,0,1-1,2.659A1.641,1.641,0,0,1,132.56,142.817Z" transform="translate(-130.585 -120.41)"/></g><g transform="translate(32.776 10.885)"><path class="f" d="M148.846,111.449a1.006,1.006,0,0,1-.848-.694c-.6-1.867-2.188-7.591.743-8.419,3.243-.917,4.347,4.814,4.38,7.514a1.014,1.014,0,0,1-.572.921A6.764,6.764,0,0,1,148.846,111.449Z" transform="translate(-147.025 -102.238)"/></g><g transform="translate(33.558 10.661)"><path class="b" d="M151.43,111.341l-.049-.442a6.737,6.737,0,0,0,2.212-.654.786.786,0,0,0,.447-.718c-.024-2.05-.678-5.764-2.318-6.99a1.92,1.92,0,0,0-1.774-.313,3.745,3.745,0,0,0-.751.418l-.248-.373a3.945,3.945,0,0,1,.877-.475,2.376,2.376,0,0,1,2.164.382c1.782,1.331,2.472,5.119,2.5,7.339a1.234,1.234,0,0,1-.694,1.124A7.1,7.1,0,0,1,151.43,111.341Z" transform="translate(-148.95 -101.687)"/></g><g transform="translate(10.84 18.385)"><path class="g" d="M97.777,123.5c.41,1.81-.3,3.511-1.6,3.8s-2.671-.938-3.081-2.744.3-3.511,1.6-3.8S97.367,121.695,97.777,123.5Z" transform="translate(-92.985 -120.714)"/></g><g transform="translate(10.732 18.164)"><path class="b" d="M95.63,127.249A2.472,2.472,0,0,1,94,126.563a4.319,4.319,0,0,1-1.279-2.277l.434-.1a3.87,3.87,0,0,0,1.141,2.042,1.732,1.732,0,0,0,2.951-.67,4.133,4.133,0,0,0-.99-4.376,1.883,1.883,0,0,0-1.672-.532l-.1-.434a2.323,2.323,0,0,1,2.07.637,4.59,4.59,0,0,1,1.108,4.883,2.11,2.11,0,0,1-2.034,1.51Z" transform="translate(-92.72 -120.169)"/></g><g transform="translate(31.21 31.227)"><path class="g" d="M147.913,156.69c-.921,1.612-2.6,2.383-3.747,1.725s-1.335-2.5-.418-4.1,2.6-2.383,3.747-1.725S148.834,155.079,147.913,156.69Z" transform="translate(-143.165 -152.352)"/></g><g transform="translate(30.986 31.263)"><path class="b" d="M144.748,158.927a2.05,2.05,0,0,1-1.019-.264,2.32,2.32,0,0,1-1.1-1.867,4.334,4.334,0,0,1,.6-2.545l.39.223a3.888,3.888,0,0,0-.54,2.277,1.734,1.734,0,0,0,2.63,1.5,3.9,3.9,0,0,0,1.689-1.624c.856-1.5.706-3.207-.333-3.8l.223-.39c1.254.718,1.478,2.7.5,4.412a4.313,4.313,0,0,1-1.888,1.806A2.828,2.828,0,0,1,144.748,158.927Z" transform="translate(-142.615 -152.44)"/></g><g transform="translate(21.571)"><path class="b" d="M123.731,88.91q-.286,0-.585-.024l.041-.442c4.084.357,6.166-3.467,6.19-3.507,2.168-4.64.357-7.087-.917-8.131a3.943,3.943,0,0,0-1.928-.844,5.548,5.548,0,0,0-6.613,4.579,8.4,8.4,0,0,0,3.471.771l.02.447a8.743,8.743,0,0,1-3.844-.889l-.146-.073.024-.162c.008-.061,1.047-6.052,7.152-5.111a4.468,4.468,0,0,1,2.143.942c1.372,1.128,3.333,3.751,1.031,8.675C129.747,85.184,127.721,88.91,123.731,88.91Z" transform="translate(-119.42 -75.423)"/></g><g transform="translate(45.139 38.018)"><path class="b" d="M177.7,175.753l-.223-.386,4.753-2.736c.024-.016.69-.418.451-.938a7.809,7.809,0,0,0-1.51-2.306l.325-.309a8.267,8.267,0,0,1,1.591,2.423,1.225,1.225,0,0,1-.629,1.51Z" transform="translate(-177.48 -169.08)"/></g><g transform="translate(23.766 39.13)"><path class="b" d="M127.163,176.33a2.618,2.618,0,0,1-1.758-1.031,4.229,4.229,0,0,1-.4-3.479l.434.1a3.819,3.819,0,0,0,.321,3.113,2.2,2.2,0,0,0,1.441.857Z" transform="translate(-124.828 -171.82)"/></g><g transform="translate(26.255 32.863)"><path class="b" d="M131.285,158.446l-.325-.309,1.656-1.758.325.309Z" transform="translate(-130.96 -156.38)"/></g><g transform="translate(21.004 48.097)"><g transform="translate(0 0)"><rect class="b" width="1.693" height="0.447" transform="translate(0 0.931) rotate(-33.382)"/></g></g><g transform="translate(0.566 59.952)"><g transform="translate(0.266 0.136)"><path class="a" d="M80.366,226.126l.56-.556L78.068,224a2.706,2.706,0,0,0-.654-.361l0,0h0a4.193,4.193,0,0,0-3.519.58,12.294,12.294,0,0,0-5.561,9.633,3.984,3.984,0,0,0,1.51,3.519v0l.032.016a2.155,2.155,0,0,0,.211.118l3.081,1.741a11.474,11.474,0,0,0,1.656-1.429c.057-.1.528-1.088,1.173-2.448a12.721,12.721,0,0,0,3.43-7.25C79.984,226.934,80.366,226.126,80.366,226.126Z" transform="translate(-68.33 -223.452)"/></g><g transform="translate(1.08 0)"><g transform="translate(0)"><g transform="translate(0)"><ellipse class="b" cx="7.867" cy="4.542" rx="7.867" ry="4.542" transform="matrix(0.5, -0.866, 0.866, 0.5, 0, 13.625)"/></g><g transform="translate(2.084 1.673)"><path class="b" d="M78.77,242.054a3.075,3.075,0,0,1-1.559-.4,4.118,4.118,0,0,1-1.741-3.8,12.557,12.557,0,0,1,5.675-9.827,3.608,3.608,0,0,1,5.9,3.406,12.557,12.557,0,0,1-5.675,9.827A5.3,5.3,0,0,1,78.77,242.054Zm4.969-14.37a4.857,4.857,0,0,0-2.371.731,12.075,12.075,0,0,0-5.452,9.442,3.174,3.174,0,0,0,5.228,3.02,12.075,12.075,0,0,0,5.452-9.442,3.71,3.71,0,0,0-1.518-3.41A2.662,2.662,0,0,0,83.739,227.684Z" transform="translate(-75.47 -227.236)"/></g></g><g transform="translate(4.215 4.364)"><path class="c" d="M88.027,236.474a8.077,8.077,0,0,1-3.653,6.328c-2.017,1.165-3.653.219-3.653-2.111a8.077,8.077,0,0,1,3.653-6.328C86.391,233.2,88.027,234.144,88.027,236.474Z" transform="translate(-80.72 -233.866)"/></g></g><g transform="translate(0 7.479)"><path class="b" d="M73.048,250.361,69.492,248.4a1.689,1.689,0,0,1-.329-.231c-2.618-2.407-1-6.458-.925-6.629l.414.17c-.016.041-1.571,3.933.816,6.13a1.251,1.251,0,0,0,.239.17l3.556,1.961Z" transform="translate(-67.676 -241.54)"/></g></g><g transform="translate(0 54.163)"><g transform="translate(0.15)"><g transform="translate(0 0.213)"><path class="a" d="M76.762,209.956c-.069-.045-.146-.089-.223-.13l-.024-.012h0a4.082,4.082,0,0,0-1.315-.4c-4.412-.6-7.664,6.45-8.439,8.305-.146.349-.187.856.142,1.047l4.567,2.651,4.936-5.476c.138.138.264.272.373.4a.489.489,0,0,0,.836-.17,12.053,12.053,0,0,0,.479-2.1l.345-.386,2.48.166.459-1.218Z" transform="translate(-66.651 -209.38)"/><g transform="translate(4.34 2.424)"><g transform="translate(0.223 0.227)"><path class="c" d="M78.142,225.3c-.329-.191-.288-.7-.142-1.047.775-1.855,4.031-8.91,8.439-8.305,3.946.54,3.016,4.863,2.411,6.759a.489.489,0,0,1-.836.17c-1.185-1.4-4.347-3.844-8.882,2.354C79.137,225.226,78.828,225.7,78.142,225.3Z" transform="translate(-77.891 -215.91)"/></g><path class="b" d="M78.336,225.353a1.248,1.248,0,0,1-.633-.195h0a1.051,1.051,0,0,1-.235-1.327c.893-2.135,4.14-9.068,8.679-8.439a3.41,3.41,0,0,1,2.57,1.494c1.039,1.652.463,4.185.024,5.549a.712.712,0,0,1-1.218.244,4,4,0,0,0-3.162-1.591c-1.7.061-3.5,1.384-5.366,3.933A.773.773,0,0,1,78.336,225.353Zm-.406-.576c.467.272.662.045.694,0,1.952-2.671,3.873-4.055,5.715-4.124a4.572,4.572,0,0,1,3.519,1.745.257.257,0,0,0,.252.085.261.261,0,0,0,.2-.179c.414-1.291.966-3.678.024-5.176a2.977,2.977,0,0,0-2.253-1.291c-4.307-.585-7.591,6.7-8.2,8.171-.122.292-.138.662.049.771Z" transform="translate(-77.343 -215.351)"/></g></g><g transform="translate(3.048)"><path class="b" d="M85.368,212.311l-4.5-2.614c-3.507-1.648-6.308,2.383-6.336,2.423l-.369-.252c.028-.045,3.044-4.388,6.909-2.57l4.522,2.626Z" transform="translate(-74.16 -208.854)"/></g></g><g transform="translate(0 7.073)"><path class="b" d="M71.135,231.654l-4.27-2.476a1.209,1.209,0,0,1-.483-1.522l.593-1.376.41.175-.593,1.376a.758.758,0,0,0,.28.95l4.287,2.488Z" transform="translate(-66.28 -226.28)"/></g></g><g transform="translate(21.99 5.495)"><path class="d" d="M120.931,92.678a3.761,3.761,0,0,1-.02-3.718l.406.187a3.335,3.335,0,0,0-.02,3.272Z" transform="translate(-120.453 -88.96)"/></g><g transform="translate(18.806 30.727)"><path class="c" d="M112.947,152.675l-.337-.292a8.841,8.841,0,0,1,1.368-1.262l.268.357A8.328,8.328,0,0,0,112.947,152.675Z" transform="translate(-112.61 -151.12)"/></g><g transform="translate(16.811 32.895)"><path class="c" d="M107.705,161.031a7.786,7.786,0,0,1,1.3-4.571l.373.244a7.425,7.425,0,0,0-1.23,4.287Z" transform="translate(-107.695 -156.46)"/></g><g transform="translate(25.966 43.209)"><g transform="translate(0 0)"><rect class="b" width="0.447" height="5.431" transform="matrix(0.523, -0.852, 0.852, 0.523, 0, 0.381)"/></g></g><g transform="translate(22.314 10.273)"><path class="b" d="M121.6,102.382a6.507,6.507,0,0,1-.345-1.607l.442-.045a6.215,6.215,0,0,0,.3,1.457Z" transform="translate(-121.25 -100.73)"/></g></g><g transform="translate(51.459 93.156)"><path class="c" d="M114.337,233.383H114.3l.012-.3a3.606,3.606,0,0,0,3.743-3.588l.3.024A3.944,3.944,0,0,1,114.337,233.383Z" transform="translate(-114.3 -229.49)"/></g><g transform="translate(71.061 84.148)"><path class="c" d="M163.183,210.292l-.28-.126a2.138,2.138,0,0,0-.313-2.63l.191-.235A2.464,2.464,0,0,1,163.183,210.292Z" transform="translate(-162.59 -207.3)"/></g></g></svg>